<svg id="Capa_1" enable-background="new 0 0 512 512" height="512" viewBox="0 0 512 512" width="512" xmlns="http://www.w3.org/2000/svg"><g><path d="m275.31 184.693-37.778-99.835-1.125-1.58c-24.423-34.291-64.108-54.764-106.156-54.764-71.821.001-130.251 58.431-130.251 130.252 0 32.355 11.947 63.379 33.632 87.348l214.38 237.372-41.9-237.769zm-219.423 41.303c-16.693-18.452-25.887-42.328-25.887-67.23 0-55.278 44.973-100.251 100.251-100.251 31.741 0 61.736 15.162 80.62 40.652l29.04 76.745-66.264 58.436 26.72 151.622z"/><path d="m381.749 28.515c-42.048 0-81.733 20.473-106.156 54.764l-4.645 6.522 39.213 103.629-68.73 64.542 36.936 209.593 199.993-221.441c21.693-23.979 33.64-55.003 33.64-87.358 0-71.821-58.43-130.251-130.251-130.251zm74.355 197.491-158.849 175.885-23.465-133.154 71.527-67.167-40.514-107.067c18.971-22.664 47.192-35.988 76.946-35.988 55.279 0 100.251 44.972 100.251 100.251 0 24.902-9.194 48.778-25.896 67.24z"/></g></svg>